<svg xmlns="http://www.w3.org/2000/svg" width="214.753" height="24.476" viewBox="0 0 214.753 24.476"><path d="M76.92 18.996c0 1.63-.594 2.88-1.781 3.751-1.188.869-2.888 1.305-5.101 1.305-2.224 0-4.009-.337-5.357-1.012v-3.063c1.962.904 3.788 1.357 5.478 1.357 2.183 0 3.275-.658 3.275-1.977 0-.423-.121-.775-.362-1.057-.242-.281-.639-.573-1.192-.875-.554-.303-1.323-.645-2.309-1.026-1.922-.745-3.222-1.489-3.901-2.234-.679-.744-1.019-1.71-1.019-2.897 0-1.428.576-2.538 1.728-3.328 1.152-.79 2.719-1.185 4.701-1.185 1.962 0 3.818.397 5.569 1.192l-1.147 2.671c-1.801-.745-3.315-1.117-4.543-1.117-1.871 0-2.807.533-2.807 1.6 0 .523.244.966.732 1.328.488.362 1.552.86 3.192 1.494 1.378.533 2.379 1.021 3.003 1.464.624.443 1.087.954 1.389 1.532s.452 1.272.452 2.077zm3.622-16.36c0-.634.173-1.122.521-1.464.347-.342.843-.513 1.487-.513.624 0 1.109.171 1.456.513.347.342.521.83.521 1.464 0 .604-.174 1.079-.521 1.426-.347.347-.833.521-1.456.521-.644 0-1.14-.174-1.487-.521-.348-.347-.521-.822-.521-1.426zM84.3 23.75h-3.546V7.058H84.3V23.75zm11.289-2.566c.865 0 1.73-.137 2.596-.408v2.672c-.393.171-.898.314-1.517.43a10.51 10.51 0 0 1-1.924.174c-3.361 0-5.041-1.771-5.041-5.313V9.744h-2.279V8.175l2.445-1.298 1.208-3.532h2.188v3.713h4.754v2.686h-4.754v8.934c0 .855.213 1.486.641 1.895.427.407.989.611 1.683.611zm13.22 2.867c-2.596 0-4.625-.757-6.089-2.271-1.464-1.514-2.196-3.6-2.196-6.255 0-2.727.679-4.869 2.037-6.429 1.358-1.559 3.225-2.339 5.599-2.339 2.204 0 3.944.669 5.222 2.007 1.278 1.338 1.917 3.18 1.917 5.524v1.917h-11.123c.05 1.62.488 2.865 1.313 3.735.825.87 1.987 1.306 3.486 1.306.986 0 1.904-.094 2.754-.279.85-.187 1.763-.496 2.739-.928v2.882c-.866.413-1.741.704-2.626.876-.885.168-1.897.254-3.033.254zm-.649-14.609c-1.127 0-2.03.357-2.709 1.072s-1.084 1.756-1.215 3.124h7.576c-.021-1.378-.353-2.422-.996-3.132-.644-.709-1.53-1.064-2.656-1.064zm22.381 9.554c0 1.63-.594 2.88-1.78 3.751-1.188.869-2.888 1.305-5.101 1.305-2.225 0-4.01-.337-5.357-1.012v-3.063c1.961.904 3.787 1.357 5.478 1.357 2.183 0 3.274-.658 3.274-1.977 0-.423-.12-.775-.361-1.057-.242-.281-.639-.573-1.192-.875-.554-.303-1.323-.645-2.31-1.026-1.922-.745-3.222-1.489-3.9-2.234-.68-.744-1.02-1.71-1.02-2.897 0-1.428.576-2.538 1.729-3.328 1.152-.79 2.719-1.185 4.701-1.185 1.962 0 3.818.397 5.568 1.192l-1.146 2.671c-1.801-.745-3.315-1.117-4.543-1.117-1.871 0-2.807.533-2.807 1.6 0 .523.244.966.732 1.328.487.362 1.551.86 3.191 1.494 1.378.533 2.379 1.021 3.003 1.464.624.443 1.087.954 1.389 1.532s.452 1.272.452 2.077z" opacity=".8" fill="#999"/><path d="M141.875 24.051c-2.385 0-4.243-.734-5.576-2.203s-2-3.526-2-6.173c0-2.616.645-4.711 1.932-6.286 1.289-1.574 3.023-2.362 5.207-2.362 1.932 0 3.456.674 4.573 2.022 1.116 1.348 1.675 3.179 1.675 5.493v1.208H135.87c.02 2.253.545 3.974 1.576 5.162s2.508 1.78 4.43 1.78c.936 0 1.759-.065 2.468-.196.71-.131 1.607-.412 2.694-.845v1.358c-.926.402-1.781.677-2.566.822-.786.147-1.652.22-2.597.22zm-.438-15.695c-1.58 0-2.848.521-3.803 1.562-.956 1.042-1.515 2.543-1.676 4.505h10.143c0-1.902-.413-3.388-1.238-4.459-.824-1.072-1.967-1.608-3.426-1.608zm16.783-1.328c1.187 0 2.213.216 3.078.649s1.64 1.172 2.324 2.219h.09a77.55 77.55 0 0 1-.09-3.728V.267h1.479V23.75h-.98l-.377-2.505h-.121c-1.248 1.871-3.039 2.807-5.373 2.807-2.264 0-3.994-.704-5.191-2.113-1.197-1.408-1.796-3.461-1.796-6.157 0-2.837.594-5.005 1.78-6.505 1.187-1.5 2.913-2.249 5.177-2.249zm0 1.358c-1.791 0-3.137.629-4.037 1.886-.901 1.258-1.352 3.084-1.352 5.479 0 4.648 1.807 6.972 5.418 6.972 1.852 0 3.209-.538 4.075-1.615.864-1.076 1.298-2.852 1.298-5.327v-.257c0-2.535-.426-4.359-1.275-5.471-.85-1.111-2.226-1.667-4.127-1.667zm12.178-5.599c0-.966.317-1.449.951-1.449.312 0 .556.126.732.377.176.252.264.609.264 1.072 0 .453-.088.81-.264 1.071a.837.837 0 0 1-.732.393c-.634 0-.951-.488-.951-1.464zm1.705 20.963h-1.494V7.345h1.494V23.75zm9.826-1.027c.945 0 1.77-.08 2.475-.241v1.207c-.725.241-1.56.362-2.506.362-1.448 0-2.518-.387-3.207-1.162-.689-.774-1.033-1.992-1.033-3.652V8.643h-2.43v-.875l2.43-.679.754-3.713h.771v3.969h4.813v1.298h-4.813v10.383c0 1.258.222 2.188.664 2.792.442.603 1.136.905 2.082.905zm19.588-7.199c0 2.677-.648 4.767-1.947 6.271-1.297 1.504-3.088 2.256-5.372 2.256-1.438 0-2.706-.348-3.804-1.041-1.096-.694-1.937-1.69-2.52-2.988-.584-1.298-.875-2.797-.875-4.498 0-2.676.648-4.761 1.946-6.255s3.079-2.241 5.343-2.241c2.254 0 4.021.757 5.305 2.271s1.924 3.59 1.924 6.225zm-12.949 0c0 2.253.496 4.012 1.487 5.275s2.392 1.894 4.203 1.894 3.212-.631 4.203-1.894 1.486-3.021 1.486-5.275c0-2.264-.501-4.019-1.501-5.267-1.002-1.247-2.408-1.871-4.219-1.871s-3.207.621-4.188 1.864c-.98 1.243-1.471 3.001-1.471 5.274zm23.951-8.496c.695 0 1.439.07 2.234.211l-.287 1.434a8.751 8.751 0 0 0-2.128-.256c-1.398 0-2.546.594-3.44 1.781-.896 1.187-1.344 2.686-1.344 4.497v9.055h-1.494V7.345h1.268l.151 2.958h.105c.674-1.208 1.394-2.055 2.158-2.543.765-.488 1.691-.732 2.777-.732z" fill="#CCC"/><path fill-rule="evenodd" clip-rule="evenodd" fill="#4D4D4D" d="M10.091 21.867c.261 1.651 1.015 2.463 2.406 2.463 1.306 0 2.235-.348 2.988-.725v-1.651h-.464c-1.479 0-1.682-.494-1.682-1.393v-8.584c0-3.449-2.321-5.016-6.323-5.016-4.147 0-6.407 1.653-6.407 4.175 0 .813.086 1.19.261 1.856l3.277-.203c-.118-.494-.261-.783-.261-1.364 0-1.014.464-2.087 2.957-2.087 2.233 0 3.192 1.103 3.192 3.189-.262.841-2.379 1.479-5.454 2.233C2.088 15.37 0 16.791 0 19.459c0 2.987 1.509 5.017 4.988 5.017 2.088 0 4.06-.726 5.103-2.609zm-.056-6.7l-.146 3.161c-.058 2.175-1.537 3.509-3.19 3.653-2.204.203-3.161-.927-3.161-2.378 0-1.652 1.131-2.552 3.827-3.16 1.015-.233 2.321-.726 2.67-1.276zm10.539 3.123v5.839h-3.326V1.857h3.326v12.904l5.279-7.279h3.799l-4.815 6.234 6.648 10.412s-3.79-.004-3.793-.019l-5.117-8.16-2.001 2.341zm15.549 5.838l-5.51-16.646h3.596l3.994 12.994L42.6 7.482h3.274L40.91 22.197c-.37 1.176-1.119 1.932-2.325 1.932h-2.462v-.001zm24.346-8.062c0-5.888-2.35-9.105-7.047-9.105-4.611 0-7.047 2.899-7.047 9.105 0 6.03 2.408 8.41 7.047 8.41 4.409 0 7.047-2.32 7.047-8.41zm-10.527-.116c0-4.61 1.072-6.32 3.479-6.32 2.35 0 3.479 1.71 3.479 6.32 0 4.119-1.014 5.713-3.479 5.713-2.464 0-3.479-1.508-3.479-5.713z"/></svg>